<svg width="43" height="43" viewBox="0 0 43 43" fill="none" xmlns="http://www.w3.org/2000/svg">
                    <path d="M29.9827 16.2656C30.1705 16.0906 30.3219 15.8802 30.4284 15.6467C30.5349 15.4131 30.5943 15.1608 30.6033 14.9043C30.6123 14.6477 30.5706 14.3919 30.4807 14.1515C30.3909 13.911 30.2545 13.6906 30.0795 13.5029C29.9044 13.3151 29.6941 13.1637 29.4605 13.0572C29.2269 12.9507 28.9747 12.8913 28.7181 12.8823C28.4616 12.8733 28.2058 12.9149 27.9653 13.0048C27.7249 13.0947 27.5045 13.2311 27.3167 13.4061L21.5977 18.7381L16.2657 13.0172C15.9089 12.6517 15.4233 12.4405 14.9128 12.4286C14.4022 12.4167 13.9073 12.6051 13.5339 12.9534C13.1604 13.3018 12.9382 13.7825 12.9147 14.2927C12.8912 14.8028 13.0683 15.3019 13.4082 15.6832L18.7402 21.4022L13.0192 26.7342C12.8248 26.9074 12.667 27.1178 12.5551 27.3529C12.4431 27.588 12.3793 27.8432 12.3673 28.1033C12.3553 28.3634 12.3954 28.6233 12.4853 28.8677C12.5752 29.1121 12.713 29.3361 12.8906 29.5265C13.0683 29.7169 13.2822 29.8699 13.5198 29.9765C13.7574 30.0831 14.0139 30.1411 14.2742 30.1472C14.5345 30.1533 14.7935 30.1073 15.0358 30.0119C15.2781 29.9165 15.4989 29.7736 15.6852 29.5917L21.4042 24.2617L26.7362 29.9807C26.9084 30.1786 27.1186 30.3399 27.3545 30.4549C27.5903 30.5699 27.8468 30.6362 28.1089 30.65C28.3709 30.6637 28.633 30.6245 28.8795 30.5348C29.126 30.4451 29.352 30.3066 29.5439 30.1277C29.7358 29.9488 29.8897 29.7331 29.9965 29.4934C30.1033 29.2538 30.1607 28.9951 30.1653 28.7327C30.17 28.4704 30.1218 28.2098 30.0236 27.9665C29.9254 27.7232 29.7792 27.5022 29.5938 27.3166L24.2637 21.5976L29.9827 16.2656Z" fill="black" />
                    <path fill-rule="evenodd" clip-rule="evenodd" d="M0 21.5C0 9.62614 9.62614 0 21.5 0C33.3739 0 43 9.62614 43 21.5C43 33.3739 33.3739 43 21.5 43C9.62614 43 0 33.3739 0 21.5ZM21.5 39.0909C19.1899 39.0909 16.9025 38.6359 14.7683 37.7519C12.634 36.8679 10.6948 35.5721 9.06135 33.9387C7.42788 32.3052 6.13214 30.366 5.24812 28.2318C4.36409 26.0975 3.90909 23.8101 3.90909 21.5C3.90909 19.1899 4.36409 16.9025 5.24812 14.7683C6.13214 12.634 7.42788 10.6948 9.06135 9.06135C10.6948 7.42788 12.634 6.13214 14.7683 5.24812C16.9025 4.36409 19.1899 3.90909 21.5 3.90909C26.1654 3.90909 30.6397 5.76241 33.9387 9.06135C37.2376 12.3603 39.0909 16.8346 39.0909 21.5C39.0909 26.1654 37.2376 30.6397 33.9387 33.9387C30.6397 37.2376 26.1654 39.0909 21.5 39.0909Z" fill="black" />
                </svg>