<svg width="30" height="30" viewBox="0 0 30 30" fill="none" xmlns="http://www.w3.org/2000/svg">
                                <path fill-rule="evenodd" clip-rule="evenodd" d="M15.0014 0.599976C11.0905 0.599976 10.5997 0.617076 9.06369 0.686977C7.53068 0.757177 6.48427 0.99988 5.56866 1.35598C4.62155 1.72379 3.81814 2.21579 3.01773 3.0165C2.21672 3.81691 1.72472 4.62032 1.35571 5.56713C0.99871 6.48304 0.755708 7.52975 0.686707 9.06216C0.618006 10.5982 0.600006 11.0893 0.600006 15.0001C0.600006 18.911 0.617406 19.4003 0.687007 20.9363C0.757508 22.4693 1.00021 23.5157 1.35601 24.4313C1.72412 25.3784 2.21612 26.1818 3.01683 26.9823C3.81694 27.7833 4.62035 28.2765 5.56686 28.6443C6.48307 29.0004 7.52978 29.2431 9.06249 29.3133C10.5985 29.3832 11.089 29.4003 14.9996 29.4003C18.9107 29.4003 19.4 29.3832 20.936 29.3133C22.469 29.2431 23.5166 29.0004 24.4329 28.6443C25.3797 28.2765 26.1819 27.7833 26.982 26.9823C27.783 26.1818 28.275 25.3784 28.644 24.4316C28.998 23.5157 29.241 22.469 29.313 20.9366C29.382 19.4006 29.4 18.911 29.4 15.0001C29.4 11.0893 29.382 10.5985 29.313 9.06246C29.241 7.52945 28.998 6.48304 28.644 5.56743C28.275 4.62032 27.783 3.81691 26.982 3.0165C26.181 2.21549 25.38 1.72349 24.432 1.35598C23.5139 0.99988 22.4669 0.757177 20.9339 0.686977C19.3979 0.617076 18.9089 0.599976 14.9969 0.599976H15.0014ZM14.5213 3.19487H14.5214L15.0013 3.19501C18.8462 3.19501 19.3019 3.20881 20.8202 3.27781C22.2242 3.34201 22.9862 3.57661 23.4938 3.77372C24.1658 4.03472 24.6449 4.34672 25.1486 4.85073C25.6526 5.35473 25.9647 5.83474 26.2263 6.50674C26.4234 7.01375 26.6583 7.77576 26.7222 9.17977C26.7912 10.6978 26.8062 11.1538 26.8062 14.9968C26.8062 18.8399 26.7912 19.2959 26.7222 20.8139C26.658 22.2179 26.4234 22.9799 26.2263 23.4869C25.9653 24.1589 25.6526 24.6374 25.1486 25.1411C24.6446 25.6451 24.1661 25.9571 23.4938 26.2181C22.9868 26.4162 22.2242 26.6502 20.8202 26.7144C19.3022 26.7834 18.8462 26.7984 15.0013 26.7984C11.1562 26.7984 10.7005 26.7834 9.18248 26.7144C7.77847 26.6496 7.01646 26.415 6.50855 26.2178C5.83655 25.9568 5.35654 25.6448 4.85254 25.1408C4.34853 24.6368 4.03653 24.158 3.77493 23.4857C3.57782 22.9787 3.34292 22.2167 3.27902 20.8127C3.21002 19.2947 3.19622 18.8387 3.19622 14.9932C3.19622 11.1478 3.21002 10.6942 3.27902 9.17617C3.34322 7.77216 3.57782 7.01015 3.77493 6.50254C4.03593 5.83054 4.34853 5.35053 4.85254 4.84653C5.35654 4.34252 5.83655 4.03052 6.50855 3.76892C7.01616 3.57091 7.77847 3.33691 9.18248 3.27241C10.5109 3.21241 11.0257 3.19441 13.7095 3.19141V3.19501C13.9603 3.19462 14.2301 3.19474 14.5212 3.19487H14.5212H14.5213ZM20.96 7.31343C20.96 6.35912 21.734 5.58601 22.688 5.58601V5.58541C23.642 5.58541 24.416 6.35942 24.416 7.31343C24.416 8.26744 23.642 9.04144 22.688 9.04144C21.734 9.04144 20.96 8.26744 20.96 7.31343ZM15.0011 7.60505C10.9173 7.60521 7.60629 10.9163 7.60629 15.0001C7.60629 19.0841 10.9174 22.3937 15.0014 22.3937C19.0853 22.3937 22.3952 19.0841 22.3952 15.0001C22.3952 10.9162 19.085 7.60505 15.0011 7.60505ZM19.8014 15.0001C19.8014 12.349 17.6522 10.2001 15.0013 10.2001C12.3502 10.2001 10.2013 12.349 10.2013 15.0001C10.2013 17.6509 12.3502 19.8002 15.0013 19.8002C17.6522 19.8002 19.8014 17.6509 19.8014 15.0001Z" fill="#FF9ED9" />
                            </svg>