<svg width="18" height="25" viewBox="0 0 18 25" fill="none" xmlns="http://www.w3.org/2000/svg">
<path d="M4 24.4444H14C14.2406 24.4445 14.4732 24.3385 14.6551 24.1458C14.8369 23.9532 14.9558 23.6869 14.99 23.3958L16.8051 7.86324C16.8404 7.56113 17.0963 7.33333 17.4005 7.33333C17.7316 7.33333 18 7.06493 18 6.73385V5.7158C18 5.25911 17.6298 4.88889 17.1731 4.88889C16.8373 4.88889 16.5349 4.68588 16.4078 4.37515L14.894 0.675889C14.8112 0.472723 14.6836 0.301826 14.5257 0.182421C14.3678 0.063016 14.1857 -0.000159623 14 3.02881e-07H4C3.621 3.02881e-07 3.275 0.261556 3.105 0.675889L1.59215 4.37504C1.46505 4.68583 1.16261 4.88889 0.826839 4.88889C0.370189 4.88889 0 5.25908 0 5.71573V6.73385C0 7.06493 0.2684 7.33333 0.599487 7.33333C0.903657 7.33333 1.15962 7.56113 1.19492 7.86324L3.01 23.3958C3.04417 23.6869 3.16309 23.9532 3.34494 24.1458C3.52678 24.3385 3.75936 24.4445 4 24.4444ZM14.6072 9.37922C14.4993 10.3032 13.7165 11 12.7862 11H5.21334C4.28323 11 3.50051 10.3035 3.39243 9.37971C3.26495 8.29019 4.11639 7.33333 5.21334 7.33333H12.7862C13.883 7.33333 14.7343 8.28987 14.6072 9.37922ZM6.49834 22C5.56823 22 4.78551 21.3035 4.67743 20.3797C4.54995 19.2902 5.40139 18.3333 6.49834 18.3333H11.5007C12.5976 18.3333 13.449 19.2902 13.3216 20.3797C13.2135 21.3035 12.4308 22 11.5007 22H6.49834ZM4.30732 3.20389C4.49523 2.74455 4.94225 2.44444 5.43854 2.44444H12.5615C13.0578 2.44444 13.5048 2.74455 13.6927 3.20389C14.0216 4.00797 13.4302 4.88889 12.5615 4.88889H5.43854C4.56978 4.88889 3.97837 4.00797 4.30732 3.20389Z" fill="black"/>
</svg>